<svg xmlns="http://www.w3.org/2000/svg" width="1200" height="435" viewBox="0 0 1200 435"><defs><marker id="arrow" markerHeight="10" markerWidth="10" orient="auto" refX="8" refY="4"><path fill="#666" d="M0,0 L0,8 L8,4 z"/></marker></defs><rect width="1200" height="435" fill="#fafafa" rx="10"/><g transform="translate(390, 8) scale(0.38)"><rect width="8" height="14" x="22" y="10" fill="#E07C4C"/><rect width="8" height="14" x="70" y="10" fill="#E07C4C"/><rect width="64" height="4" x="18" y="24" fill="#E07C4C"/><rect width="72" height="32" x="14" y="28" fill="#E07C4C"/><rect width="8" height="10" x="30" y="34" fill="#000"/><rect width="8" height="10" x="62" y="34" fill="#000"/><rect width="12" height="8" x="2" y="36" fill="#E07C4C"/><rect width="12" height="8" x="86" y="36" fill="#E07C4C"/><rect width="12" height="14" x="24" y="60" fill="#E07C4C"/><rect width="12" height="14" x="64" y="60" fill="#E07C4C"/></g><text x="435" y="33" fill="#333" font-family="system-ui" font-size="18" font-weight="bold" text-anchor="start">Claude Code Orchestration Workflow</text><circle cx="75" cy="190" r="38" fill="#E07C4C"/><text x="75" y="196" fill="#fff" font-family="system-ui" font-size="16" font-weight="bold" text-anchor="middle">User</text><line x1="118" x2="183" y1="190" y2="190" stroke="#666" stroke-width="2.5" marker-end="url(#arrow)"/><rect width="240" height="90" x="193" y="145" fill="#2C3E50" stroke="#1A252F" stroke-width="2.5" rx="8"/><text x="313" y="179" fill="#fff" font-family="system-ui" font-size="16" font-weight="bold" text-anchor="middle">Command</text><text x="313" y="207" fill="#fff" font-family="system-ui" font-size="12" opacity=".9" text-anchor="middle">commands/weather-orchestrator</text><text x="313" y="265" fill="#888" font-family="system-ui" font-size="11" text-anchor="middle">Asks user for C°/F°, invokes</text><text x="313" y="280" fill="#888" font-family="system-ui" font-size="11" text-anchor="middle">agent and SVG creator skill</text><line x1="438" x2="503" y1="190" y2="190" stroke="#666" stroke-width="2.5" marker-end="url(#arrow)"/><text x="470" y="180" fill="#666" font-family="system-ui" font-size="11" text-anchor="middle">Task</text><rect width="240" height="126" x="513" y="127" fill="#2BA5A5" stroke="#1E8F8F" stroke-width="2.5" rx="8"/><text x="633" y="155" fill="#fff" font-family="system-ui" font-size="16" font-weight="bold" text-anchor="middle">Agent</text><text x="633" y="173" fill="#fff" font-family="system-ui" font-size="12" opacity=".85" text-anchor="middle">agents/weather-agent</text><rect width="212" height="56" x="527" y="183" fill="#fff" opacity=".2" rx="5"/><text x="633" y="205" fill="#fff" font-family="system-ui" font-size="12" opacity=".7" text-anchor="middle">(preloaded skill)</text><text x="633" y="229" fill="#fff" font-family="system-ui" font-size="11" opacity=".9" text-anchor="middle">weather-fetcher</text><text x="633" y="273" fill="#888" font-family="system-ui" font-size="11" text-anchor="middle">Fetches temperature from</text><text x="633" y="288" fill="#888" font-family="system-ui" font-size="11" text-anchor="middle">Open-Meteo API for Dubai</text><line x1="758" x2="823" y1="190" y2="190" stroke="#666" stroke-width="2.5" marker-end="url(#arrow)"/><text x="790" y="180" fill="#666" font-family="system-ui" font-size="11" text-anchor="middle">Skill</text><rect width="280" height="90" x="833" y="145" fill="#9B59B6" stroke="#8E44AD" stroke-width="2.5" rx="8"/><text x="973" y="179" fill="#fff" font-family="system-ui" font-size="16" font-weight="bold" text-anchor="middle">Skill</text><text x="973" y="207" fill="#fff" font-family="system-ui" font-size="12" opacity=".9" text-anchor="middle">skills/weather-svg-creator</text><text x="973" y="265" fill="#888" font-family="system-ui" font-size="11" text-anchor="middle">Creates SVG weather card at</text><text x="973" y="280" fill="#888" font-family="system-ui" font-size="11" text-anchor="middle">orchestration-workflow/weather.svg</text><path fill="none" stroke="#666" stroke-dasharray="6 4" stroke-width="2.5" marker-end="url(#arrow)" d="M 1113 190 Q 1160 190 1160 325 Q 1160 360 75 360 Q 40 360 40 255 L 40 235"/><text x="600" y="407" fill="#888" font-family="system-ui" font-size="12" text-anchor="middle">commands/weather-orchestrator → agents/weather-agent (preloaded skill) → skills/weather-svg-creator (skill)</text></svg>